<?xml version="1.0" encoding="utf-8"?>
<!-- Generator: Adobe Illustrator 27.0.0, SVG Export Plug-In . SVG Version: 6.00 Build 0)  -->
<svg version="1.1" id="레이어_1" xmlns="http://www.w3.org/2000/svg" xmlns:xlink="http://www.w3.org/1999/xlink" x="0px"
	 y="0px" viewBox="0 0 500 500" style="enable-background:new 0 0 500 500;" xml:space="preserve">
<style type="text/css">
	.st0{fill:#996600;}
	.st1{fill:#000066;}
	.st2{fill:#B80000;}
</style>
<g>
	<g>
		<path class="st0" d="M418.8,0c-33-7-75.9,62.3-103.7,97c0,0-0.1,0-0.1,0c-0.2,0-0.3,0-0.5-0.1L22.1,389.4
			c26.6,48.8,75.6,81.8,135.8,98l319-319C472.7,121.7,458.1,8.3,418.8,0z"/>
	</g>
	<g>
		<path class="st1" d="M296.6,95c-6-0.6-11.6-1.1-17.1-1.5c-6.9-0.5-13.7-0.9-20.9-1c-2.8-0.1-5.6-0.1-8.5-0.1H250
			c-2.9,0-5.8,0-8.5,0.1c-7.2,0.2-14,0.5-21,1c-5.6,0.4-11.2,1-17.1,1.6c-5.7,0.6-11.8,1.3-18.4,2c0,0-0.1,0-0.1,0
			C157,62.3,114.2-7,81.2,0C41.4,8.4,26.9,124.8,23,170.3C9.2,210,1.6,241.5,0.5,295.7c-0.7,35.8,7.1,67.1,21.5,93.7L314.6,97
			C308.1,96.2,302.2,95.6,296.6,95z"/>
	</g>
	<g>
		<path class="st2" d="M477,170.3c-0.1-0.6-0.1-1.2-0.2-1.8l-319,319c28.6,7.7,59.7,11.6,92.1,11.6h0.1
			c137.7,0,252.1-70.6,249.4-203.4C498.4,241.5,490.8,210,477,170.3z"/>
	</g>
</g>
</svg>
