<?xml version="1.0" encoding="UTF-8"?>
<svg id="_레이어_1" data-name="레이어 1" xmlns="http://www.w3.org/2000/svg" viewBox="0 0 500 500">
  <defs>
    <style>
      .cls-1 {
        fill: #040000;
      }
    </style>
  </defs>
  <path class="cls-1" d="M499.47,295.71c-1.11-54.19-8.69-85.66-22.47-125.38-3.92-45.55-18.42-161.89-58.19-170.32-32.98-7-75.88,62.27-103.68,97.02-.03,0-.06-.01-.09-.01-6.63-.74-12.71-1.43-18.47-2.02-5.95-.61-11.56-1.13-17.12-1.55-6.88-.52-13.67-.86-20.88-1.03-2.76-.06-5.6-.09-8.52-.09h-.09c-2.91,0-5.75,.03-8.52,.09-7.24,.16-14.05,.51-20.96,1.03-5.56,.43-11.19,.95-17.14,1.56-5.74,.59-11.79,1.26-18.39,2.01-.03,0-.06,.01-.09,.01C157.05,62.27,114.17-7,81.17,0,41.41,8.43,26.92,124.77,23,170.32,9.22,210.05,1.64,241.52,.53,295.71c-2.72,132.82,111.68,203.38,249.43,203.38h.09c137.75,0,252.15-70.57,249.43-203.38Z"/>
</svg>