<?xml version="1.0" encoding="utf-8"?>
<!-- Generator: Adobe Illustrator 27.0.0, SVG Export Plug-In . SVG Version: 6.00 Build 0)  -->
<svg version="1.1" id="레이어_1" xmlns="http://www.w3.org/2000/svg" xmlns:xlink="http://www.w3.org/1999/xlink" x="0px"
	 y="0px" viewBox="0 0 500 500" style="enable-background:new 0 0 500 500;" xml:space="preserve">
<style type="text/css">
	.st0{fill:#000620;}
	.st1{fill:#E87D9E;}
</style>
<g>
	<path class="st0" d="M250,486.6c-39.3,0-75.9-5.8-108.6-17.3c-33.1-11.6-60.6-28.4-81.7-50C27.7,386.7,12,345.2,13,296
		c1.1-52.5,8.5-83.2,21.8-121.5c0.3-1,0.6-2,0.6-3c1.8-20.7,6.1-60.9,15.3-97.1c13.7-54,28.7-61.2,33-62.1c0.7-0.1,1.4-0.2,2.2-0.2
		c5.4,0,15.5,3.7,32.5,21.3C132,47.4,145.8,66,158,82.4c6.1,8.1,11.8,15.8,17.1,22.4c2.4,3,6,4.7,9.8,4.7c0.5,0,1,0,1.5-0.1
		c0,0,0,0,0,0c7.6-0.9,13.2-1.5,18.3-2c6.2-0.6,11.7-1.1,16.8-1.5c6.9-0.5,13.6-0.8,20.3-1c2.7-0.1,5.4-0.1,8.2-0.1
		c2.9,0,5.7,0,8.3,0.1c6.9,0.2,13.5,0.5,20.2,1c5.1,0.4,10.4,0.9,16.8,1.5c4.8,0.5,9.9,1.1,15.3,1.7l3,0.3c0.5,0.1,1,0.1,1.5,0.1
		c3.8,0,7.4-1.7,9.8-4.7c5.3-6.6,11-14.3,17-22.4c12.2-16.4,26-35,39.7-49.1C398.6,15.7,408.6,12,414,12c0.8,0,1.5,0.1,2.2,0.2
		c4.3,0.9,19.3,8.1,33,62.1c9.2,36.1,13.5,76.3,15.3,97.1c0.1,1,0.3,2,0.6,3c13.3,38.3,20.7,69,21.8,121.5
		c1,49.2-14.7,90.8-46.7,123.4c-21.1,21.6-48.6,38.4-81.7,50C325.9,480.8,289.4,486.6,250,486.6L250,486.6z"/>
	<path class="st1" d="M86.7,24.4L86.7,24.4L86.7,24.4 M414.1,24.5L414.1,24.5L414.1,24.5 M413.6,24.6c2.1,1.4,13.4,11.1,24.5,56.8
		c8.3,34.4,12.3,71.9,14,91.1c0.2,2.1,0.6,4.1,1.3,6.1c13.2,38,20,66.6,21.1,117.7c0.9,45.8-13.6,84.2-43.1,114.4
		c-19.8,20.2-45.7,36-76.9,46.9c-31.4,11-66.5,16.6-104.4,16.6H250c-37.9,0-73.1-5.6-104.4-16.5c-31.3-10.9-57.1-26.7-76.9-46.9
		c-29.5-30.1-44-68.6-43.1-114.4c1-51.1,7.9-79.7,21.1-117.7c0.7-2,1.1-4,1.3-6c1.7-19.3,5.7-56.7,14-91.1
		c11-45.6,22.4-55.3,24.4-56.8c1.7,0.4,9,2.8,23.5,17.9C122.8,55.9,136.2,74,148,89.9c6.1,8.2,11.9,16,17.3,22.8
		c4.7,5.9,11.9,9.4,19.5,9.4c1,0,2-0.1,3-0.2c7.5-0.9,13.1-1.5,18-2c6.1-0.6,11.5-1.1,16.5-1.5v0c6.7-0.5,13.1-0.8,19.6-1
		c2.6-0.1,5.3-0.1,8-0.1h0.1c2.7,0,5.4,0,7.9,0.1c6.7,0.2,13.1,0.5,19.6,1c5,0.4,10.2,0.8,16.5,1.5c4.8,0.5,9.9,1.1,15.2,1.7l3,0.3
		c0,0,0,0,0,0c0.9,0.1,1.9,0.2,2.8,0.2c7.6,0,14.8-3.5,19.5-9.4c5.4-6.7,11.2-14.5,17.3-22.7C363.8,74,377.2,56,390.1,42.5
		C404.6,27.3,411.9,24.9,413.6,24.6 M414-0.5c-32.3,0-72.4,64.4-98.9,97.5c0,0-0.1,0-0.1,0c-6.6-0.7-12.7-1.4-18.5-2
		c-6-0.6-11.6-1.1-17.1-1.5c-6.9-0.5-13.7-0.9-20.9-1c-2.8-0.1-5.6-0.1-8.5-0.1H250c-2.9,0-5.8,0-8.5,0.1c-7.2,0.2-14.1,0.5-21,1
		c-5.6,0.4-11.2,0.9-17.1,1.6c-5.7,0.6-11.8,1.3-18.4,2c0,0-0.1,0-0.1,0C158.4,63.9,118.2-0.5,85.9-0.5c-1.6,0-3.2,0.2-4.8,0.5
		C41.4,8.4,26.9,124.8,23,170.3C9.2,210,1.6,241.5,0.5,295.7C-2.2,428.5,112.2,499.1,250,499.1h0.1c137.7,0,252.1-70.6,249.4-203.4
		c-1.1-54.2-8.7-85.7-22.5-125.4C473.1,124.8,458.6,8.4,418.8,0C417.2-0.3,415.7-0.5,414-0.5L414-0.5z"/>
</g>
</svg>
