<?xml version="1.0" encoding="UTF-8"?>
<svg id="_레이어_1" data-name="레이어 1" xmlns="http://www.w3.org/2000/svg" viewBox="0 0 98 73.73">
  <defs>
    <style>
      .cls-1, .cls-2 {
        fill: #01071e;
      }

      .cls-2 {
        opacity: .38;
      }
    </style>
  </defs>
  <ellipse class="cls-2" cx="10.22" cy="37.99" rx="10.22" ry="9.88"/>
  <ellipse class="cls-2" cx="33.21" cy="10.7" rx="9.14" ry="10.7"/>
  <path class="cls-2" d="M64.48,24.21c4.33,1.29,9.22-2.25,10.9-7.91,1.69-5.66-.46-11.3-4.79-12.59-4.33-1.29-9.22,2.25-10.9,7.91-1.69,5.66,.46,11.3,4.79,12.59Z"/>
  <path class="cls-2" d="M84.24,48.1c4,2.1,9.48-.44,12.22-5.67,2.74-5.23,1.72-11.17-2.28-13.28-4-2.1-9.48,.44-12.22,5.67-2.74,5.23-1.72,11.17,2.28,13.28Z"/>
  <path class="cls-2" d="M73.72,53c-5.18-8.67-10.83-18.28-23.92-18.65-13.1,.36-18.74,9.98-23.92,18.65-5.08,8.47-2.32,19.16,5.25,20.37,8.28,1.32,13.38-1.44,18.67-1.7,5.29,.26,10.4,3.02,18.67,1.7,7.57-1.22,10.33-11.91,5.25-20.37Z"/>
  <ellipse class="cls-1" cx="10.22" cy="37.99" rx="10.22" ry="9.88"/>
  <ellipse class="cls-1" cx="33.21" cy="10.7" rx="9.14" ry="10.7"/>
  <path class="cls-1" d="M64.48,24.21c4.33,1.29,9.22-2.25,10.9-7.91,1.69-5.66-.46-11.3-4.79-12.59-4.33-1.29-9.22,2.25-10.9,7.91-1.69,5.66,.46,11.3,4.79,12.59Z"/>
  <path class="cls-1" d="M84.24,48.1c4,2.1,9.48-.44,12.22-5.67,2.74-5.23,1.72-11.17-2.28-13.28-4-2.1-9.48,.44-12.22,5.67-2.74,5.23-1.72,11.17,2.28,13.28Z"/>
  <path class="cls-1" d="M73.72,53c-5.18-8.67-10.83-18.28-23.92-18.65-13.1,.36-18.74,9.98-23.92,18.65-5.08,8.47-2.32,19.16,5.25,20.37,8.28,1.32,13.38-1.44,18.67-1.7,5.29,.26,10.4,3.02,18.67,1.7,7.57-1.22,10.33-11.91,5.25-20.37Z"/>
</svg>